<?xml version="1.0" standalone="no"?>
<!DOCTYPE svg PUBLIC "-//W3C//DTD SVG 20010904//EN"
 "http://www.w3.org/TR/2001/REC-SVG-20010904/DTD/svg10.dtd">
<svg version="1.0" xmlns="http://www.w3.org/2000/svg"
 width="260.000000pt" height="260.000000pt" viewBox="0 0 260.000000 260.000000"
 preserveAspectRatio="xMidYMid meet">
<metadata>
Created by potrace 1.14, written by Peter Selinger 2001-2017
</metadata>
<g transform="translate(0.000000,260.000000) scale(0.100000,-0.100000)"
fill="#000000" stroke="none">
<path d="M956 2591 c-3 -5 -23 -12 -43 -16 -96 -17 -205 -68 -301 -140 -67
-50 -167 -158 -192 -205 -8 -16 -37 -43 -63 -60 -101 -64 -199 -174 -260 -291
-38 -72 -77 -179 -77 -208 0 -11 -4 -23 -10 -26 -13 -8 -13 -272 0 -280 13 -8
13 -122 0 -130 -12 -8 -14 -272 -1 -279 5 -3 12 -23 16 -43 26 -144 107 -284
230 -401 40 -39 92 -81 114 -94 23 -13 46 -36 53 -53 19 -45 185 -207 253
-247 157 -90 243 -112 423 -110 233 2 252 2 387 -4 84 -3 144 -1 170 6 127 36
157 47 224 82 125 65 259 186 304 274 9 18 32 41 52 53 141 83 278 266 330
441 9 30 21 71 26 90 6 20 8 89 5 165 -7 162 -7 208 0 370 3 79 1 144 -5 165
-6 19 -19 64 -30 100 -45 154 -180 333 -318 424 -23 16 -56 49 -73 75 -31 49
-137 156 -200 203 -71 53 -247 128 -301 128 -10 0 -21 5 -24 10 -4 6 -62 10
-140 10 -78 0 -136 -4 -140 -10 -3 -5 -33 -10 -65 -10 -32 0 -62 5 -65 10 -8
12 -272 14 -279 1z m387 -66 c88 -26 206 -97 285 -171 l77 -71 116 -6 c64 -3
127 -10 140 -16 13 -5 44 -15 69 -22 54 -15 118 -45 143 -67 17 -15 38 -56 65
-127 25 -66 42 -165 42 -250 l0 -91 46 -44 c90 -89 149 -177 191 -290 21 -56
23 -70 13 -107 -24 -99 -146 -286 -221 -342 -29 -21 -29 -22 -29 -122 0 -163
-66 -361 -132 -395 -99 -51 -235 -84 -348 -84 l-92 0 -41 -43 c-95 -97 -254
-196 -342 -213 -74 -14 -270 92 -380 205 l-49 51 -96 0 c-133 1 -311 52 -373
107 -49 45 -98 209 -104 353 l-6 115 -63 68 c-124 131 -206 297 -182 370 35
110 103 222 193 317 l53 55 5 110 c3 61 11 126 17 145 6 19 16 51 22 70 22 71
58 140 82 155 73 48 208 84 341 91 l110 6 50 48 c98 93 189 151 300 191 28 10
50 18 50 18 0 1 22 -6 48 -14z"/>
<path d="M1233 2400 c-35 -16 -63 -35 -63 -42 0 -7 30 -28 68 -46 l67 -33 68
36 c37 20 67 41 67 46 0 9 -119 69 -137 69 -5 0 -36 -13 -70 -30z"/>
<path d="M937 2142 c-17 -19 -56 -100 -57 -118 0 -6 28 -16 63 -22 l62 -11 42
47 c48 53 52 67 22 82 -14 8 -102 38 -115 40 0 0 -8 -8 -17 -18z"/>
<path d="M1576 2136 c-33 -11 -61 -26 -63 -32 -5 -16 78 -116 92 -110 6 2 37
7 68 11 32 4 57 11 57 15 0 15 -59 123 -72 131 -16 11 -10 12 -82 -15z"/>
<path d="M566 2126 c-54 -20 -61 -27 -81 -72 -36 -78 -39 -93 -20 -100 9 -4
33 0 53 9 20 9 49 18 63 21 22 5 30 16 48 71 34 106 33 108 -63 71z"/>
<path d="M1955 2141 c-6 -11 31 -131 46 -146 8 -8 58 -25 128 -42 22 -5 24 -4
18 23 -3 16 -15 50 -26 76 -16 37 -28 50 -63 66 -59 26 -96 34 -103 23z"/>
<path d="M1274 1929 c-19 -21 -18 -21 5 -40 17 -14 27 -16 42 -9 22 12 23 23
9 51 -14 25 -32 24 -56 -2z"/>
<path d="M1051 1833 c-22 -47 -51 -144 -51 -169 0 -30 -33 -64 -62 -64 -52 0
-198 -56 -198 -76 0 -22 46 -120 79 -168 36 -52 38 -65 13 -97 -23 -31 -92
-167 -92 -183 0 -21 130 -76 181 -76 35 0 79 -39 79 -70 0 -26 47 -170 61
-186 13 -16 71 6 157 58 34 21 71 38 82 38 10 0 43 -14 72 -31 29 -17 77 -42
106 -55 l52 -23 14 22 c18 27 52 129 60 178 8 46 21 57 82 68 27 5 58 13 69
17 44 16 104 44 109 52 5 9 -52 129 -91 192 -19 30 -20 39 -10 57 62 110 104
201 99 210 -15 22 -148 73 -193 73 -37 0 -55 25 -74 104 -19 74 -52 156 -63
156 -26 -1 -125 -47 -181 -85 -43 -29 -43 -29 -75 -11 -70 41 -184 96 -198 96
-8 0 -20 -12 -27 -27z m367 -319 c71 -33 73 -35 104 -101 41 -91 41 -138 -1
-230 l-33 -71 -77 -34 c-96 -42 -136 -41 -224 3 -70 35 -79 45 -119 134 -29
67 -27 109 13 195 32 69 36 74 94 100 122 57 129 57 243 4z"/>
<path d="M1240 1427 c-41 -14 -80 -75 -80 -125 0 -98 91 -168 182 -140 121 36
137 208 25 262 -41 19 -78 20 -127 3z"/>
<path d="M842 1729 c4 -40 20 -47 48 -19 28 28 21 44 -19 48 -31 3 -32 2 -29
-29z"/>
<path d="M1700 1742 c0 -10 9 -27 21 -38 20 -18 21 -18 35 1 22 30 13 50 -24
53 -26 3 -32 0 -32 -16z"/>
<path d="M503 1692 c-29 -14 -54 -31 -57 -38 -9 -25 35 -144 54 -144 12 0 97
62 103 75 2 6 0 38 -6 73 -11 72 -16 74 -94 34z"/>
<path d="M2006 1653 c-7 -72 -6 -75 72 -129 30 -22 47 -7 67 63 19 65 15 73
-57 109 -70 36 -74 34 -82 -43z"/>
<path d="M197 1364 c-28 -71 -28 -74 14 -161 12 -24 25 -43 30 -43 5 0 25 31
44 70 l35 70 -32 65 c-43 85 -59 84 -91 -1z"/>
<path d="M2317 1363 l-34 -66 34 -69 c19 -38 40 -67 46 -65 13 4 39 52 57 108
11 33 9 42 -16 98 -15 33 -34 61 -41 61 -7 0 -28 -30 -46 -67z"/>
<path d="M667 1322 c-23 -25 -21 -39 5 -53 18 -10 24 -8 40 11 17 21 17 24 2
41 -21 24 -27 24 -47 1z"/>
<path d="M1890 1325 c-26 -31 13 -82 44 -56 22 18 20 48 -3 61 -25 13 -26 13
-41 -5z"/>
<path d="M485 1080 c-3 -5 -14 -35 -25 -67 -17 -53 -18 -59 -3 -75 16 -18 122
-73 127 -66 7 8 22 129 17 137 -10 15 -92 81 -101 81 -5 0 -12 -4 -15 -10z"/>
<path d="M2047 1052 l-48 -37 7 -65 c3 -36 10 -69 14 -73 9 -10 130 50 137 69
8 21 -39 145 -55 143 -4 0 -29 -17 -55 -37z"/>
<path d="M842 868 c3 -37 23 -46 53 -24 19 14 19 15 1 35 -11 12 -28 21 -38
21 -16 0 -19 -6 -16 -32z"/>
<path d="M1712 888 c-19 -19 -14 -46 9 -53 28 -9 53 16 44 44 -7 23 -34 28
-53 9z"/>
<path d="M1271 706 c-16 -19 2 -56 28 -56 28 0 47 28 34 48 -13 22 -47 27 -62
8z"/>
<path d="M451 639 c0 -8 10 -41 23 -74 20 -54 28 -62 71 -83 26 -13 60 -26 76
-29 35 -7 36 1 13 72 -9 28 -18 56 -20 63 -3 12 -12 16 -84 42 -61 21 -80 23
-79 9z"/>
<path d="M2080 633 c-85 -30 -89 -32 -95 -60 -4 -15 -13 -43 -21 -61 -23 -53
-19 -66 17 -58 72 14 115 42 138 89 24 50 32 98 16 103 -5 1 -30 -5 -55 -13z"/>
<path d="M923 593 c-30 -3 -43 -9 -43 -19 0 -24 59 -134 73 -134 21 0 109 29
123 41 20 16 18 20 -22 72 -39 50 -35 48 -131 40z"/>
<path d="M1546 549 c-37 -48 -38 -53 -22 -65 10 -7 43 -21 73 -30 46 -15 56
-15 68 -3 20 20 66 127 57 133 -4 2 -36 7 -72 10 l-65 6 -39 -51z"/>
<path d="M1233 286 c-92 -46 -86 -61 38 -106 34 -12 41 -11 103 18 43 20 64
35 61 44 -4 10 -110 68 -135 74 -3 0 -33 -13 -67 -30z"/>
</g>
</svg>
